<svg width="2429" height="1156" viewBox="0 0 2429 1156" fill="none" xmlns="http://www.w3.org/2000/svg">
<g filter="url(#filter0_i_93_16)">
<path d="M276.85 1151.62L151.785 1102.35C163.855 1051.77 209.02 1010.23 276.85 994.339C250.905 975.342 196.859 955.826 159.149 945.833C141.452 948.899 122.468 950.833 118.564 941.28C116.744 936.825 134.44 939.285 159.149 945.833C170.29 943.903 180.92 941.524 186.96 941.28L81.4358 920.436C92.0563 897.534 98.2174 884.917 140.06 895.802L175.235 837.058L151.785 787.79L231.905 837.058C203.107 799.743 193.359 779.796 200.639 747.996C229.626 702.745 247.838 679.82 296.392 658.934C325.392 556.807 361.094 518.412 468.357 492.179L566.064 575.556L442.953 391.746C446.525 348.973 453.437 336.321 468.357 319.739C612.878 246.758 684.261 234.053 781.02 300.789C841.501 326.478 852.742 349.764 847.461 401.221L720.442 602.085L812.286 509.233V575.556C856.555 542.916 881.37 543.899 925.627 562.291V694.938L966.664 575.556L999.884 711.992L1046.78 738.521L1011.61 837.058L1107.36 738.521C1130.3 796.236 1120.54 831.146 1081.96 895.802L1171.85 821.899C1176.67 855.802 1171.88 874.876 1146.45 909.066C1193.96 901.117 1212.7 911.311 1228.52 962.125L1171.85 941.28L1060.46 952.65L966.664 994.339C1042.04 992.761 1076.52 1000.71 1121.04 1034.13L1107.36 1134.56L276.85 1151.62Z" fill="black"/>
<path d="M276.85 1151.62L151.785 1102.35C163.855 1051.77 209.02 1010.23 276.85 994.339C233.904 962.895 113.966 930.027 118.564 941.28C124.926 956.847 171.326 941.912 186.96 941.28L81.4358 920.436C92.0563 897.534 98.2174 884.917 140.06 895.802L175.235 837.058L151.785 787.79L231.905 837.058C203.107 799.743 193.359 779.796 200.639 747.996C229.626 702.745 247.838 679.82 296.392 658.934C325.392 556.807 361.094 518.412 468.357 492.179L566.064 575.556L442.953 391.746C446.525 348.973 453.437 336.321 468.357 319.739C612.878 246.758 684.261 234.053 781.02 300.789C841.501 326.478 852.742 349.764 847.461 401.221L720.442 602.085L812.286 509.233V575.556C856.555 542.916 881.37 543.899 925.627 562.291V694.938L966.664 575.556L999.884 711.992L1046.78 738.521L1011.61 837.058L1107.36 738.521C1130.3 796.236 1120.54 831.146 1081.96 895.802L1171.85 821.899C1176.67 855.802 1171.88 874.876 1146.45 909.066C1193.96 901.117 1212.7 911.311 1228.52 962.125L1171.85 941.28L1060.46 952.65L966.664 994.339C1042.04 992.761 1076.52 1000.71 1121.04 1034.13L1107.36 1134.56L276.85 1151.62Z" stroke="black"/>
<path d="M524.912 111.253L643.277 1L753.881 61.5308C771.313 77.8428 780.635 99.7803 796.57 158.812C828.731 217.632 842.029 248.898 850.901 299.33C888.591 347.653 896.593 366.403 895.531 390.127L862.544 454.981L994.492 519.836L1070.17 649.544L1108.98 673.324C1128.59 735.674 1142.63 765.49 1180.77 796.548L1196.3 859.241C1254.31 912.642 1267.92 945.854 1285.55 1006.24C1223.3 977.243 1189.11 968.076 1128.38 954.36L1196.3 1021.38C1146.57 990.135 1115.64 981.468 1058.53 971.655L1128.38 1034.35C1069.5 998.041 1034.12 986.389 963.445 993.273L1058.53 954.36L1171.07 939.228L1231.22 971.655C1212.16 915.547 1193.29 902.198 1147.78 904.639C1173.46 871.471 1179.74 851.755 1171.07 813.842C1139.14 867.349 1118.35 879.885 1079.87 893.83C1118.37 851.781 1120.72 814.324 1108.98 736.017L1015.84 833.299L1048.82 736.017L1006.13 716.561L963.445 578.205C940.149 621.417 934.421 645.527 928.518 688.457V563.072C885.324 545.251 861.108 546.247 817.914 563.072V500.379L722.834 604.146L850.901 403.098C851.237 338.008 831.247 319.97 782.987 299.33C715.593 253.063 671.898 248.844 587.005 266.903C477.504 306.924 468.617 316.395 458.938 331.758C433.502 384.532 437.223 401.881 458.938 422.554L571.482 578.205L495.806 519.836L470.58 492.813C349.796 521.387 319.802 563.471 297.883 660.354C255.478 678.643 234.187 697.845 200.863 748.988C199.422 791.56 206.538 810.169 233.85 833.299L150.412 785.739L173.697 833.299L138.769 893.83C100.926 895.902 88.9223 901.974 80.557 919.771L191.161 939.228H96.0803C179.518 947.534 223.858 954.467 274.598 993.273C215.329 1003 188.857 1027.24 150.412 1094.88C146.178 1045.53 154.075 1022.79 191.161 993.273H119.365L138.769 971.655C84.4582 945.826 54.2387 946.876 1 993.273C78.8752 830.519 135.783 768.199 233.85 649.544L317.288 519.836L445.355 465.79C419.474 430.924 408.987 411.156 406.547 374.994L458.938 288.521L524.912 111.253Z" fill="url(#paint0_linear_93_16)"/>
<path d="M445.355 465.79C419.474 430.924 408.987 411.156 406.547 374.994L458.938 288.521L524.912 111.253L643.277 1L753.881 61.5308C771.313 77.8428 780.635 99.7802 796.57 158.812C828.731 217.632 842.029 248.898 850.901 299.33C888.591 347.653 896.593 366.403 895.531 390.127L862.544 454.981L994.492 519.836L1070.17 649.544L1108.98 673.324C1128.59 735.675 1142.63 765.49 1180.77 796.548L1196.3 859.241C1254.31 912.642 1267.92 945.854 1285.55 1006.24C1223.3 977.243 1189.11 968.076 1128.38 954.36L1196.3 1021.38C1146.57 990.135 1115.64 981.468 1058.53 971.655L1128.38 1034.35C1069.5 998.041 1034.12 986.389 963.445 993.273L1058.53 954.36L1171.07 939.228L1231.22 971.655C1212.16 915.547 1193.29 902.198 1147.78 904.639C1173.46 871.471 1179.74 851.755 1171.07 813.842C1139.14 867.349 1118.35 879.885 1079.87 893.83C1118.37 851.781 1120.72 814.324 1108.98 736.017L1015.84 833.299L1048.82 736.017L1006.13 716.561L963.445 578.205C940.149 621.417 934.421 645.527 928.518 688.457V563.072C885.324 545.251 861.108 546.247 817.914 563.072V500.379L722.834 604.146L850.901 403.098C851.237 338.008 831.247 319.97 782.987 299.33C715.593 253.063 671.898 248.844 587.005 266.903C477.504 306.924 468.617 316.395 458.938 331.758C433.502 384.532 437.223 401.881 458.938 422.554L571.482 578.205L495.806 519.836L470.58 492.813M445.355 465.79L317.288 519.836L233.85 649.544C135.783 768.199 78.8752 830.519 1 993.273C54.2387 946.876 84.4582 945.826 138.769 971.655L119.365 993.273H191.161C154.075 1022.79 146.178 1045.53 150.412 1094.88C188.857 1027.24 215.329 1003 274.598 993.273C223.858 954.467 179.518 947.534 96.0803 939.228H191.161L80.557 919.771C88.9223 901.974 100.926 895.902 138.769 893.83L173.697 833.299L150.412 785.739L233.85 833.299C206.538 810.169 199.422 791.56 200.863 748.988C234.187 697.845 255.478 678.643 297.883 660.354C319.802 563.471 349.796 521.387 470.58 492.813M445.355 465.79L470.58 492.813" stroke="#B5CE36"/>
<path d="M282.36 1155.41L293.731 747.9C293.882 742.488 298.313 738.179 303.727 738.179H934.041C939.564 738.179 944.041 742.656 944.041 748.179V1140.28L917.55 788.213C917.166 783.117 913.003 779.13 907.895 778.968L313.48 760.107C308.047 759.935 303.471 764.135 303.178 769.563L282.36 1155.41Z" fill="url(#paint1_linear_93_16)"/>
<path d="M404.434 969.801C397.934 969.801 392.214 968.934 387.274 967.201C382.334 965.381 378.477 962.781 375.704 959.401C372.93 955.934 371.544 951.731 371.544 946.791C371.544 942.024 372.93 937.907 375.704 934.441C378.564 930.887 383.07 928.114 389.224 926.121C395.377 924.127 403.437 923.131 413.404 923.131H440.964C446.51 923.131 451.104 923.347 454.744 923.781C458.384 924.214 461.504 924.951 464.104 925.991C466.704 926.944 469.13 928.244 471.384 929.891C473.984 931.711 476.02 934.137 477.494 937.171C479.054 940.117 479.834 943.497 479.834 947.311C479.834 954.331 477.58 959.834 473.074 963.821C468.654 967.807 462.284 969.801 453.964 969.801C451.884 969.801 449.5 969.671 446.814 969.411C444.214 969.237 441.787 968.847 439.534 968.241L442.654 954.851C443.867 955.197 445.08 955.457 446.294 955.631C447.507 955.717 448.807 955.761 450.194 955.761C453.834 955.761 456.607 955.024 458.514 953.551C460.42 951.991 461.374 949.607 461.374 946.401C461.374 944.147 460.767 942.371 459.554 941.071C458.427 939.684 456.824 938.644 454.744 937.951C452.75 937.257 450.454 936.824 447.854 936.651C445.254 936.391 442.567 936.261 439.794 936.261H411.064C408.03 936.261 405.127 936.434 402.354 936.781C399.667 937.041 397.37 937.647 395.464 938.601C393.817 939.467 392.604 940.551 391.824 941.851C391.044 943.151 390.654 944.667 390.654 946.401C390.654 949.694 391.997 952.121 394.684 953.681C397.457 955.241 401.14 956.021 405.734 956.021C409.114 956.021 411.974 955.501 414.314 954.461C416.74 953.334 418.604 951.427 419.904 948.741C421.204 945.967 421.854 942.154 421.854 937.301V909.091H402.224V928.981L384.804 931.061V895.181H465.144V909.091H440.704V937.041C440.704 943.107 440.097 947.917 438.884 951.471C437.757 954.937 436.11 957.884 433.944 960.311C430.737 963.777 426.62 966.247 421.594 967.721C416.654 969.107 410.934 969.801 404.434 969.801ZM520.919 969.801C514.939 969.801 509.695 968.587 505.189 966.161C500.769 963.734 497.302 960.094 494.789 955.241C492.275 950.301 491.019 944.191 491.019 936.911C491.019 927.551 493.055 919.664 497.129 913.251C501.202 906.837 506.749 901.984 513.769 898.691C520.789 895.311 528.675 893.621 537.429 893.621C545.402 893.621 552.162 894.661 557.709 896.741C563.255 898.734 567.762 901.507 571.229 905.061C574.695 908.527 577.209 912.557 578.769 917.151C580.329 921.657 581.109 926.381 581.109 931.321C581.109 935.567 580.675 939.641 579.809 943.541C578.942 947.354 577.815 950.951 576.429 954.331H603.859V895.181H623.229V968.241H556.539L555.889 957.711C557.535 954.764 558.922 951.254 560.049 947.181C561.175 943.107 561.739 938.557 561.739 933.531C561.739 928.071 560.742 923.434 558.749 919.621C556.842 915.807 553.982 912.904 550.169 910.911C546.355 908.831 541.632 907.791 535.999 907.791C530.105 907.791 525.079 909.177 520.919 911.951C516.759 914.724 513.595 918.451 511.429 923.131C509.262 927.724 508.179 932.837 508.179 938.471C508.179 942.804 508.655 946.314 509.609 949.001C510.562 951.601 511.905 953.507 513.639 954.721C515.459 955.847 517.625 956.411 520.139 956.411C522.132 956.411 523.779 956.021 525.079 955.241C526.465 954.461 527.505 953.334 528.199 951.861C528.979 950.387 529.369 948.611 529.369 946.531C529.369 943.237 528.459 940.724 526.639 938.991C524.905 937.171 522.479 936.261 519.359 936.261C515.719 936.261 512.469 937.344 509.609 939.511C506.749 941.591 504.149 943.887 501.809 946.401L498.949 933.921C502.155 930.887 505.795 928.331 509.869 926.251C513.942 924.171 518.709 923.131 524.169 923.131C531.102 923.131 536.735 925.081 541.069 928.981C545.402 932.881 547.569 938.427 547.569 945.621C547.569 950.647 546.529 954.981 544.449 958.621C542.455 962.174 539.465 964.947 535.479 966.941C531.579 968.847 526.725 969.801 520.919 969.801ZM671.797 969.801C665.297 969.801 659.577 968.934 654.637 967.201C649.697 965.381 645.84 962.781 643.067 959.401C640.294 955.934 638.907 951.731 638.907 946.791C638.907 942.024 640.294 937.907 643.067 934.441C645.927 930.887 650.434 928.114 656.587 926.121C662.74 924.127 670.8 923.131 680.767 923.131H732.637V936.261H678.427C675.394 936.261 672.49 936.434 669.717 936.781C667.03 937.041 664.734 937.647 662.827 938.601C661.18 939.467 659.967 940.551 659.187 941.851C658.407 943.151 658.017 944.667 658.017 946.401C658.017 949.694 659.36 952.121 662.047 953.681C664.82 955.154 668.504 955.891 673.097 955.891C676.477 955.891 679.337 955.371 681.677 954.331C684.104 953.291 685.967 951.427 687.267 948.741C688.567 945.967 689.217 942.154 689.217 937.301V909.091H669.587V928.981L652.167 931.061V895.181H732.637V909.091H707.807V937.041C707.807 943.107 707.244 947.917 706.117 951.471C704.99 954.937 703.344 957.884 701.177 960.311C697.97 963.777 693.854 966.247 688.827 967.721C683.887 969.107 678.21 969.801 671.797 969.801ZM819.557 893.621C827.617 893.621 834.16 895.354 839.187 898.821C844.214 902.201 847.897 906.881 850.237 912.861C852.664 918.841 853.877 925.601 853.877 933.141C853.877 939.727 853.097 945.231 851.537 949.651C850.064 954.071 847.68 957.667 844.387 960.441C842.047 962.434 839.404 963.994 836.457 965.121C833.51 966.247 829.957 967.071 825.797 967.591C821.724 968.024 816.654 968.241 810.587 968.241H748.837V895.181H768.207V954.331H792.127V922.091C792.127 916.717 792.69 912.341 793.817 908.961C795.03 905.581 796.764 902.764 799.017 900.511C801.357 898.257 804.217 896.567 807.597 895.441C811.064 894.227 815.05 893.621 819.557 893.621ZM820.857 907.531C819.73 907.531 818.604 907.704 817.477 908.051C816.437 908.397 815.484 909.004 814.617 909.871C813.49 910.997 812.667 912.557 812.147 914.551C811.714 916.457 811.497 919.621 811.497 924.041V954.331H816.437C821.03 954.331 824.627 953.681 827.227 952.381C829.914 950.994 831.777 948.741 832.817 945.621C833.944 942.501 834.507 938.341 834.507 933.141C834.507 928.374 834.074 924.084 833.207 920.271C832.34 916.371 830.91 913.294 828.917 911.041C826.924 908.701 824.237 907.531 820.857 907.531ZM799.407 882.181C796.287 882.181 793.73 881.184 791.737 879.191C789.744 877.111 788.747 874.511 788.747 871.391C788.747 868.271 789.744 865.714 791.737 863.721C793.73 861.641 796.287 860.601 799.407 860.601C802.44 860.601 804.954 861.641 806.947 863.721C808.94 865.714 809.937 868.271 809.937 871.391C809.937 874.511 808.94 877.111 806.947 879.191C804.954 881.184 802.44 882.181 799.407 882.181Z" fill="url(#paint2_linear_93_16)"/>
<path d="M592.253 350.503C538.475 343.887 506.665 343.282 455.206 349.41C449.753 350.059 445.885 355.029 446.542 360.48L447.122 365.286C447.576 369.051 450.216 372.051 453.554 373.85C457.96 376.225 459.561 378.989 459.774 384.017C463.38 410.127 468.018 421.687 478.139 438.116C478.841 439.254 479.783 440.244 480.882 441.005C515.44 464.951 538.987 471.11 596.517 445.04C597.693 444.507 598.784 443.729 599.664 442.783C616.715 424.459 625.109 411.987 633.508 387.521C634.281 385.27 635.784 383.295 637.895 382.195C645.701 378.127 649.929 378.894 654.955 382.029C656.895 383.24 658.206 385.229 658.841 387.427C665.304 409.806 672.434 422.731 689.56 442.446C690.572 443.612 691.874 444.531 693.306 445.107C755.685 470.202 791.076 467.765 815.583 434.524C816.187 433.705 816.652 432.779 816.967 431.812L832.714 383.444C833.178 382.02 833.197 380.495 833.397 379.011C833.744 376.448 835.456 374.5 838.621 372.282C841.518 370.252 843.449 367.07 843.449 363.533V359.349C843.449 354.354 839.755 350.117 834.8 349.48C787.84 343.441 757.837 343.464 705.758 347.825C705.194 347.872 704.622 347.969 704.074 348.112C692.717 351.095 684.723 353.958 669.785 360.241C668.551 360.76 667.222 361.031 665.883 361.031H625.079C623.968 361.031 622.864 360.846 621.813 360.483L594.302 350.977C593.641 350.748 592.947 350.588 592.253 350.503Z" fill="url(#paint3_linear_93_16)"/>
<path d="M711.24 355.198L688.387 364.477C686.879 365.089 685.525 366.049 684.541 367.344C679.167 374.416 677.925 380.478 677.315 391.678C677.648 408.748 681.976 418.152 695.867 433.917C696.447 434.575 697.127 435.161 697.864 435.638C716.939 447.981 729.718 452.254 756.307 452.972C780.719 452.321 790.982 446.318 805.362 431.154C806.09 430.386 806.691 429.494 807.132 428.531C815.878 409.464 818.781 398.46 816.491 379.638C814.687 367.301 806.489 361.909 782.111 354.853C781.221 354.595 780.286 354.464 779.359 354.464H715.002C713.712 354.464 712.435 354.713 711.24 355.198Z" fill="#161313"/>
<path d="M494.683 359.211L480.508 369.19C478.462 370.63 477.013 372.785 476.545 375.243C473.981 388.7 474.353 398.581 477.023 415.499C477.221 416.754 477.665 417.964 478.325 419.05C485.454 430.781 490.407 437.342 501.046 444.908C501.939 445.543 502.953 446.014 504.008 446.307C534.028 454.647 550.183 455.233 575.754 445.858C591.709 440.143 597.962 434.58 605.846 421.778C614.186 407.943 616.537 399.428 613.369 381.827C611.883 366.674 604.187 360.837 575.754 356.106C545.763 354.272 528.585 354.173 499.292 357.459C497.634 357.645 496.047 358.251 494.683 359.211Z" fill="#161313"/>
<path d="M547.649 417.856C542.607 422.142 541.216 426.176 541.426 431.555C541.615 436.394 546.033 439.849 550.876 439.849H566.194C570.729 439.849 575.002 436.824 575.315 432.3C575.529 429.206 575.021 426.825 573.887 423.92C570.202 415.722 565.658 413.354 551.534 416.051C550.112 416.322 548.752 416.918 547.649 417.856Z" fill="#B6D41C"/>
<path d="M725.197 417.856C720.155 422.142 718.763 426.176 718.973 431.555C719.162 436.394 723.581 439.849 728.424 439.849H743.742C748.277 439.849 752.55 436.824 752.863 432.3C753.076 429.206 752.569 426.825 751.435 423.92C747.749 415.722 743.206 413.354 729.082 416.051C727.66 416.322 726.3 416.918 725.197 417.856Z" fill="#42B40D"/>
<path d="M644.39 456.505C645.121 455.007 647.255 455.007 647.985 456.505L658.228 477.506C658.876 478.834 657.909 480.382 656.431 480.382H635.945C634.467 480.382 633.499 478.834 634.147 477.506L644.39 456.505Z" fill="#B6D41C"/>
<path d="M701.191 501.323C661.704 525.807 636.251 525.48 590.245 501.041C588.788 500.267 587.005 501.308 587.005 502.958C587.005 503.571 587.276 504.167 587.73 504.578C634.644 547.018 660.368 548.949 703.802 504.533C704.179 504.148 704.4 503.619 704.4 503.08C704.4 501.446 702.58 500.461 701.191 501.323Z" fill="#42B40D"/>
</g>
<g filter="url(#filter1_d_93_16)">
<path d="M1166.21 408H1257.71V413.7H1241.21V508.5L1243.61 507.9L1328.21 413.7H1304.51V408H1357.01V413.7H1339.01L1287.41 471.3L1359.41 612.3H1375.61V618H1279.31V612.3H1293.41L1243.91 516.6L1241.21 517.2V612.3H1257.71V618H1166.21V612.3H1182.71V413.7H1166.21V408ZM1449.34 547.5H1458.04V524.4C1458.04 505.4 1456.94 492.7 1454.74 486.3C1452.74 479.7 1448.74 476.4 1442.74 476.4C1439.14 476.4 1435.84 477.4 1432.84 479.4C1430.04 481.2 1428.64 483.8 1428.64 487.2C1428.64 490.4 1429.24 493.7 1430.44 497.1H1437.94C1439.54 501.3 1440.34 506.4 1440.34 512.4C1440.34 518.2 1437.84 523.3 1432.84 527.7C1427.84 531.9 1421.54 534 1413.94 534C1396.74 534 1388.14 525.7 1388.14 509.1C1388.14 484.5 1409.04 472.2 1450.84 472.2C1474.64 472.2 1491.04 476.3 1500.04 484.5C1509.24 492.5 1513.84 507.3 1513.84 528.9V589.8C1513.84 600.2 1516.74 605.4 1522.54 605.4C1529.34 605.4 1533.34 595.1 1534.54 574.5L1539.04 574.8C1538.24 592.4 1534.94 604.5 1529.14 611.1C1523.34 617.7 1513.84 621 1500.64 621C1476.64 621 1462.84 613.6 1459.24 598.8C1456.64 606.4 1452.74 612 1447.54 615.6C1442.34 619.2 1434.74 621 1424.74 621C1395.14 621 1380.34 608.9 1380.34 584.7C1380.34 570.5 1385.94 560.8 1397.14 555.6C1408.54 550.2 1425.94 547.5 1449.34 547.5ZM1437.34 584.4C1437.34 594.8 1437.84 601.5 1438.84 604.5C1440.04 607.5 1442.14 609 1445.14 609C1448.34 609 1451.24 606.5 1453.84 601.5C1456.64 596.3 1458.04 589.2 1458.04 580.2V552.3H1455.94C1443.54 552.3 1437.34 561.4 1437.34 579.6V584.4ZM1521.11 480.6V475.2H1610.81V480.6H1591.91L1627.91 580.2L1660.31 480.6H1640.21V475.2H1680.71V480.6H1667.51L1623.11 618H1588.91L1533.41 480.6H1521.11ZM1746.7 547.5H1755.4V524.4C1755.4 505.4 1754.3 492.7 1752.1 486.3C1750.1 479.7 1746.1 476.4 1740.1 476.4C1736.5 476.4 1733.2 477.4 1730.2 479.4C1727.4 481.2 1726 483.8 1726 487.2C1726 490.4 1726.6 493.7 1727.8 497.1H1735.3C1736.9 501.3 1737.7 506.4 1737.7 512.4C1737.7 518.2 1735.2 523.3 1730.2 527.7C1725.2 531.9 1718.9 534 1711.3 534C1694.1 534 1685.5 525.7 1685.5 509.1C1685.5 484.5 1706.4 472.2 1748.2 472.2C1772 472.2 1788.4 476.3 1797.4 484.5C1806.6 492.5 1811.2 507.3 1811.2 528.9V589.8C1811.2 600.2 1814.1 605.4 1819.9 605.4C1826.7 605.4 1830.7 595.1 1831.9 574.5L1836.4 574.8C1835.6 592.4 1832.3 604.5 1826.5 611.1C1820.7 617.7 1811.2 621 1798 621C1774 621 1760.2 613.6 1756.6 598.8C1754 606.4 1750.1 612 1744.9 615.6C1739.7 619.2 1732.1 621 1722.1 621C1692.5 621 1677.7 608.9 1677.7 584.7C1677.7 570.5 1683.3 560.8 1694.5 555.6C1705.9 550.2 1723.3 547.5 1746.7 547.5ZM1734.7 584.4C1734.7 594.8 1735.2 601.5 1736.2 604.5C1737.4 607.5 1739.5 609 1742.5 609C1745.7 609 1748.6 606.5 1751.2 601.5C1754 596.3 1755.4 589.2 1755.4 580.2V552.3H1753.3C1740.9 552.3 1734.7 561.4 1734.7 579.6V584.4ZM1846.25 621V567.3H1849.85C1855.05 584.7 1862.05 596.9 1870.85 603.9C1879.65 610.9 1890.65 614.4 1903.85 614.4C1924.25 614.4 1934.45 607.9 1934.45 594.9C1934.45 589.3 1931.95 585.1 1926.95 582.3C1919.15 577.9 1909.15 574.5 1896.95 572.1C1883.35 568.5 1871.95 563.7 1862.75 557.7C1851.75 550.5 1846.25 539.1 1846.25 523.5C1846.25 507.9 1851.05 495.5 1860.65 486.3C1870.25 476.9 1883.05 472.2 1899.05 472.2C1908.85 472.2 1918.95 474.5 1929.35 479.1C1933.15 480.7 1936.05 481.5 1938.05 481.5C1940.05 481.5 1941.75 480.8 1943.15 479.4C1944.55 478 1946.25 475.4 1948.25 471.6H1951.55V517.5H1947.95C1937.75 491.5 1921.95 478.5 1900.55 478.5C1891.15 478.5 1884.15 480.2 1879.55 483.6C1874.95 486.8 1872.65 490.9 1872.65 495.9C1872.65 498.9 1873.35 501.3 1874.75 503.1C1876.15 504.7 1877.25 505.9 1878.05 506.7C1878.85 507.5 1880.15 508.4 1881.95 509.4C1883.75 510.2 1885.25 510.9 1886.45 511.5C1887.65 511.9 1889.45 512.5 1891.85 513.3C1894.45 514.1 1896.35 514.6 1897.55 514.8C1911.15 518.2 1920.95 521.2 1926.95 523.8C1932.95 526.2 1938.65 529.2 1944.05 532.8C1955.05 540.4 1960.55 552.7 1960.55 569.7C1960.55 586.5 1955.55 599.3 1945.55 608.1C1935.55 616.7 1921.85 621 1904.45 621C1892.05 621 1880.05 618.1 1868.45 612.3C1866.05 610.7 1864.15 609.9 1862.75 609.9C1858.35 609.9 1854.05 613.6 1849.85 621H1846.25ZM2041.43 547.5H2050.13V524.4C2050.13 505.4 2049.03 492.7 2046.83 486.3C2044.83 479.7 2040.83 476.4 2034.83 476.4C2031.23 476.4 2027.93 477.4 2024.93 479.4C2022.13 481.2 2020.73 483.8 2020.73 487.2C2020.73 490.4 2021.33 493.7 2022.53 497.1H2030.03C2031.63 501.3 2032.43 506.4 2032.43 512.4C2032.43 518.2 2029.93 523.3 2024.93 527.7C2019.93 531.9 2013.63 534 2006.03 534C1988.83 534 1980.23 525.7 1980.23 509.1C1980.23 484.5 2001.13 472.2 2042.93 472.2C2066.73 472.2 2083.13 476.3 2092.13 484.5C2101.33 492.5 2105.93 507.3 2105.93 528.9V589.8C2105.93 600.2 2108.83 605.4 2114.63 605.4C2121.43 605.4 2125.43 595.1 2126.63 574.5L2131.13 574.8C2130.33 592.4 2127.03 604.5 2121.23 611.1C2115.43 617.7 2105.93 621 2092.73 621C2068.73 621 2054.93 613.6 2051.33 598.8C2048.73 606.4 2044.83 612 2039.63 615.6C2034.43 619.2 2026.83 621 2016.83 621C1987.23 621 1972.43 608.9 1972.43 584.7C1972.43 570.5 1978.03 560.8 1989.23 555.6C2000.63 550.2 2018.03 547.5 2041.43 547.5ZM2029.43 584.4C2029.43 594.8 2029.93 601.5 2030.93 604.5C2032.13 607.5 2034.23 609 2037.23 609C2040.43 609 2043.33 606.5 2045.93 601.5C2048.73 596.3 2050.13 589.2 2050.13 580.2V552.3H2048.03C2035.63 552.3 2029.43 561.4 2029.43 579.6V584.4ZM2134.07 475.2H2206.37V502.8C2212.97 482.4 2227.47 472.2 2249.87 472.2C2272.47 472.2 2286.17 483 2290.97 504.6C2297.97 483 2312.67 472.2 2335.07 472.2C2364.47 472.2 2379.17 488.9 2379.17 522.3V612.6H2395.97V618H2312.87V612.6H2323.37V515.1C2323.37 499.9 2322.07 491 2319.47 488.4C2318.27 487.2 2316.67 486.6 2314.67 486.6C2308.87 486.6 2303.77 490.5 2299.37 498.3C2294.97 506.1 2292.77 516 2292.77 528V612.6H2303.57V618H2226.47V612.6H2236.97V515.1C2236.97 499.9 2235.67 491 2233.07 488.4C2231.87 487.2 2230.27 486.6 2228.27 486.6C2222.67 486.6 2217.57 490.9 2212.97 499.5C2208.57 507.9 2206.37 518 2206.37 529.8V612.6H2217.17V618H2134.07V612.6H2150.57V480.6H2134.07V475.2Z" fill="#FBFBFB"/>
<path d="M1486.4 813H1594.4V819.6H1562.6V1016.4H1573.4C1590.4 1016.4 1603.9 1011.2 1613.9 1000.8C1624.1 990.4 1634.4 974.4 1644.8 952.8H1651.1L1645.4 1023H1486.4V1016.4H1504.1V819.6H1486.4V813ZM1733.81 952.5H1742.51V929.4C1742.51 910.4 1741.41 897.7 1739.21 891.3C1737.21 884.7 1733.21 881.4 1727.21 881.4C1723.61 881.4 1720.31 882.4 1717.31 884.4C1714.51 886.2 1713.11 888.8 1713.11 892.2C1713.11 895.4 1713.71 898.7 1714.91 902.1H1722.41C1724.01 906.3 1724.81 911.4 1724.81 917.4C1724.81 923.2 1722.31 928.3 1717.31 932.7C1712.31 936.9 1706.01 939 1698.41 939C1681.21 939 1672.61 930.7 1672.61 914.1C1672.61 889.5 1693.51 877.2 1735.31 877.2C1759.11 877.2 1775.51 881.3 1784.51 889.5C1793.71 897.5 1798.31 912.3 1798.31 933.9V994.8C1798.31 1005.2 1801.21 1010.4 1807.01 1010.4C1813.81 1010.4 1817.81 1000.1 1819.01 979.5L1823.51 979.8C1822.71 997.4 1819.41 1009.5 1813.61 1016.1C1807.81 1022.7 1798.31 1026 1785.11 1026C1761.11 1026 1747.31 1018.6 1743.71 1003.8C1741.11 1011.4 1737.21 1017 1732.01 1020.6C1726.81 1024.2 1719.21 1026 1709.21 1026C1679.61 1026 1664.81 1013.9 1664.81 989.7C1664.81 975.5 1670.41 965.8 1681.61 960.6C1693.01 955.2 1710.41 952.5 1733.81 952.5ZM1721.81 989.4C1721.81 999.8 1722.31 1006.5 1723.31 1009.5C1724.51 1012.5 1726.61 1014 1729.61 1014C1732.81 1014 1735.71 1011.5 1738.31 1006.5C1741.11 1001.3 1742.51 994.2 1742.51 985.2V957.3H1740.41C1728.01 957.3 1721.81 966.4 1721.81 984.6V989.4ZM1935.96 942.3C1935.96 921.7 1934.96 907.9 1932.96 900.9C1930.96 893.7 1927.06 890.1 1921.26 890.1C1915.46 890.1 1910.26 893.7 1905.66 900.9C1901.06 908.1 1898.76 918 1898.76 930.6V986.4C1898.76 995 1900.46 1002.3 1903.86 1008.3C1907.46 1014.3 1912.46 1017.3 1918.86 1017.3C1925.46 1017.3 1929.96 1012.9 1932.36 1004.1C1934.76 995.3 1935.96 979.9 1935.96 957.9V942.3ZM1898.76 798V903C1906.36 885.8 1919.36 877.2 1937.76 877.2C1975.16 877.2 1993.86 902.1 1993.86 951.9C1993.86 977.3 1988.66 996 1978.26 1008C1968.06 1020 1952.66 1026 1932.06 1026C1921.66 1026 1913.66 1024.4 1908.06 1021.2C1902.66 1018 1898.96 1012.7 1896.96 1005.3L1894.86 1023H1826.46V1017.6H1842.96V803.4H1826.46V798H1898.76ZM2009.72 1026V972.3H2013.32C2018.52 989.7 2025.52 1001.9 2034.32 1008.9C2043.12 1015.9 2054.12 1019.4 2067.32 1019.4C2087.72 1019.4 2097.92 1012.9 2097.92 999.9C2097.92 994.3 2095.42 990.1 2090.42 987.3C2082.62 982.9 2072.62 979.5 2060.42 977.1C2046.82 973.5 2035.42 968.7 2026.22 962.7C2015.22 955.5 2009.72 944.1 2009.72 928.5C2009.72 912.9 2014.52 900.5 2024.12 891.3C2033.72 881.9 2046.52 877.2 2062.52 877.2C2072.32 877.2 2082.42 879.5 2092.82 884.1C2096.62 885.7 2099.52 886.5 2101.52 886.5C2103.52 886.5 2105.22 885.8 2106.62 884.4C2108.02 883 2109.72 880.4 2111.72 876.6H2115.02V922.5H2111.42C2101.22 896.5 2085.42 883.5 2064.02 883.5C2054.62 883.5 2047.62 885.2 2043.02 888.6C2038.42 891.8 2036.12 895.9 2036.12 900.9C2036.12 903.9 2036.82 906.3 2038.22 908.1C2039.62 909.7 2040.72 910.9 2041.52 911.7C2042.32 912.5 2043.62 913.4 2045.42 914.4C2047.22 915.2 2048.72 915.9 2049.92 916.5C2051.12 916.9 2052.92 917.5 2055.32 918.3C2057.92 919.1 2059.82 919.6 2061.02 919.8C2074.62 923.2 2084.42 926.2 2090.42 928.8C2096.42 931.2 2102.12 934.2 2107.52 937.8C2118.52 945.4 2124.02 957.7 2124.02 974.7C2124.02 991.5 2119.02 1004.3 2109.02 1013.1C2099.02 1021.7 2085.32 1026 2067.92 1026C2055.52 1026 2043.52 1023.1 2031.92 1017.3C2029.52 1015.7 2027.62 1014.9 2026.22 1014.9C2021.82 1014.9 2017.52 1018.6 2013.32 1026H2009.72Z" fill="url(#paint4_linear_93_16)"/>
</g>
<defs>
<filter id="filter0_i_93_16" x="0.549072" y="0.388184" width="1289.79" height="1159.02" filterUnits="userSpaceOnUse" color-interpolation-filters="sRGB">
<feFlood flood-opacity="0" result="BackgroundImageFix"/>
<feBlend mode="normal" in="SourceGraphic" in2="BackgroundImageFix" result="shape"/>
<feColorMatrix in="SourceAlpha" type="matrix" values="0 0 0 0 0 0 0 0 0 0 0 0 0 0 0 0 0 0 127 0" result="hardAlpha"/>
<feOffset dx="26" dy="4"/>
<feGaussianBlur stdDeviation="2"/>
<feComposite in2="hardAlpha" operator="arithmetic" k2="-1" k3="1"/>
<feColorMatrix type="matrix" values="0 0 0 0 0 0 0 0 0 0 0 0 0 0 0 0 0 0 0.57 0"/>
<feBlend mode="normal" in2="shape" result="effect1_innerShadow_93_16"/>
</filter>
<filter id="filter1_d_93_16" x="1166.21" y="408" width="1241.76" height="630" filterUnits="userSpaceOnUse" color-interpolation-filters="sRGB">
<feFlood flood-opacity="0" result="BackgroundImageFix"/>
<feColorMatrix in="SourceAlpha" type="matrix" values="0 0 0 0 0 0 0 0 0 0 0 0 0 0 0 0 0 0 127 0" result="hardAlpha"/>
<feOffset dx="8" dy="8"/>
<feGaussianBlur stdDeviation="2"/>
<feComposite in2="hardAlpha" operator="out"/>
<feColorMatrix type="matrix" values="0 0 0 0 0 0 0 0 0 0 0 0 0 0 0 0 0 0 0.25 0"/>
<feBlend mode="normal" in2="BackgroundImageFix" result="effect1_dropShadow_93_16"/>
<feBlend mode="normal" in="SourceGraphic" in2="effect1_dropShadow_93_16" result="shape"/>
</filter>
<linearGradient id="paint0_linear_93_16" x1="552.078" y1="77.7444" x2="1265.47" y2="880.136" gradientUnits="userSpaceOnUse">
<stop offset="0.00785658" stop-color="#B5CE36"/>
<stop offset="1" stop-color="#0E850C"/>
</linearGradient>
<linearGradient id="paint1_linear_93_16" x1="282.36" y1="874.82" x2="948.798" y2="991.626" gradientUnits="userSpaceOnUse">
<stop stop-color="#B5CE36"/>
<stop offset="0.266839" stop-color="#88BB2B"/>
<stop offset="1" stop-color="#0E850C"/>
</linearGradient>
<linearGradient id="paint2_linear_93_16" x1="327.96" y1="954.361" x2="898.442" y2="954.361" gradientUnits="userSpaceOnUse">
<stop stop-color="#B5CE36"/>
<stop offset="1" stop-color="#0E850C"/>
</linearGradient>
<linearGradient id="paint3_linear_93_16" x1="445.355" y1="388.125" x2="842.504" y2="427.988" gradientUnits="userSpaceOnUse">
<stop stop-color="#B5CE36"/>
<stop offset="1" stop-color="#42B40D"/>
</linearGradient>
<linearGradient id="paint4_linear_93_16" x1="944" y1="1110" x2="2256" y2="953" gradientUnits="userSpaceOnUse">
<stop offset="0.5" stop-color="#B5CE36"/>
<stop offset="1" stop-color="#0E850C"/>
</linearGradient>
</defs>
</svg>
